<?xml version="1.0" encoding="utf-8"?>
<!-- Generator: Adobe Illustrator 18.0.0, SVG Export Plug-In . SVG Version: 6.00 Build 0)  -->
<!DOCTYPE svg PUBLIC "-//W3C//DTD SVG 1.1//EN" "http://www.w3.org/Graphics/SVG/1.1/DTD/svg11.dtd">
<svg version="1.1" id="Camada_1" xmlns="http://www.w3.org/2000/svg" xmlns:xlink="http://www.w3.org/1999/xlink" x="0px" y="0px" width="223px" height="80px"
	 viewBox="0 0 223 80" enable-background="new 0 0 223 80" xml:space="preserve">
<circle fill="#EEE814" cx="69.2" cy="35.6" r="35.6"/>
<path fill="#54B848" d="M24.4,44.7c0,0-4.4-6.2-2.8-11.4c0,0,2.4-4,7.7,5.7c0,0,3.7-2.9-2.2-12.1c0,0,6.4-5.5,12.7,5.1
	c0,0,0.2-16.9-14.3-11.8c0,0-4.6,1.7-4.2,7.4c0,0-7,1.8-5.9,9.9C15.4,37.5,15,41.8,24.4,44.7z"/>
<path fill="#54B848" d="M14.1,46c0,0-5.3-10.2,1.2-16c0,0,6.4-5,7.8-11.9l3.7-4.8c0,0-7.4-1.2-10.5,6c0,0-5.7-2.7-9.2-1.6
	c0,0,5.7,1.5,5.7,5.7c0,0-10.7-1.5-11.8,8.6c0,0,5.8-6.6,8.5-1.1C9.5,30.9,0.9,42.3,14.1,46z"/>
<polygon fill="#54B848" points="27.6,39.9 27.6,43.6 42.4,57 43.3,55.2 "/>
<path fill="#54B848" d="M36.4,46l1.1-1.3c0,0-3.3-4.8-2-16.5h-1.3C34.2,28.2,31.4,41.8,36.4,46z"/>
<path d="M97,27.9c0.8-0.2,1.6-0.3,2.5-0.3c0.8,0,1.7,0,2.5,0.1c0.2,0,0.4,0.1,0.6,0.2c0.2,0.1,0.4,0.1,0.6,0.2
	c0.2,0.1,0.4,0.2,0.6,0.3c0.2,0.1,0.4,0.3,0.6,0.5c0.2,0.2,0.3,0.4,0.4,0.6c0.1,0.1,0.1,0.2,0.1,0.4l0.1,0.4c0,0.3,0.1,0.5,0.1,0.8
	c0,0.3,0,0.5-0.1,0.7l-1.3-0.6c0.1-0.2,0.3-0.3,0.4-0.5c0.1-0.2,0.3-0.3,0.4-0.5c0.3-0.3,0.6-0.6,0.9-0.9c0.3-0.3,0.6-0.6,1-0.8
	c0.2-0.1,0.4-0.3,0.5-0.4c0.2-0.1,0.4-0.2,0.6-0.3c0.8-0.4,1.7-0.7,2.6-0.7c0.2,0,0.5,0,0.7,0c0.2,0,0.5,0.1,0.7,0.1
	c0.1,0,0.2,0.1,0.3,0.1c0.1,0,0.2,0.1,0.3,0.1c0.2,0.1,0.4,0.2,0.5,0.4l-0.1,0.2c-0.2,0-0.4,0-0.6,0c-0.2,0-0.4,0-0.6,0
	c-0.2,0-0.4,0.1-0.5,0.1c-0.2,0.1-0.3,0.1-0.5,0.2c-0.2,0.1-0.3,0.1-0.5,0.2c-0.2,0.1-0.3,0.2-0.5,0.3c-0.3,0.2-0.6,0.4-0.9,0.6
	c-0.2,0.1-0.3,0.2-0.5,0.3c-0.1,0.1-0.3,0.2-0.5,0.3l-0.9,0.7c-0.3,0.2-0.6,0.5-0.9,0.7c-0.1,0.1-0.3,0.3-0.4,0.4
	c-0.1,0.1-0.3,0.3-0.4,0.4l-1.8,1.8l0.5-2.5c0-0.2,0.1-0.3,0.1-0.5c0-0.2,0-0.3,0-0.5l0-0.2c0-0.1,0-0.1-0.1-0.2
	c-0.1-0.1-0.1-0.3-0.2-0.4c-0.1-0.1-0.2-0.2-0.3-0.4c-0.1-0.1-0.3-0.2-0.4-0.3c-0.1-0.1-0.3-0.2-0.5-0.3c-0.2-0.1-0.3-0.1-0.5-0.2
	c-0.7-0.2-1.5-0.4-2.3-0.5c-0.8-0.1-1.6-0.1-2.4-0.1L97,27.9z"/>
<path d="M33.5,9.6c0.8-0.2,1.6-0.3,2.4-0.3c0.8,0,1.7,0,2.5,0.2c0.2,0,0.4,0.1,0.6,0.2c0.2,0.1,0.4,0.1,0.6,0.2L40,10l0.3,0.2
	c0.2,0.1,0.4,0.3,0.5,0.4c0.1,0.1,0.2,0.2,0.2,0.3c0.1,0.1,0.2,0.2,0.2,0.3c0.1,0.2,0.2,0.4,0.4,0.6c0.1,0.2,0.2,0.5,0.2,0.7
	c0.1,0.2,0.1,0.5,0.1,0.7l-1.4-0.2c0.1-0.3,0.2-0.5,0.3-0.7c0.1-0.2,0.2-0.4,0.4-0.6c0.1-0.2,0.3-0.4,0.4-0.6
	c0.2-0.2,0.3-0.4,0.5-0.6c0.2-0.2,0.3-0.4,0.5-0.5c0.2-0.2,0.4-0.3,0.6-0.5C43.6,9.3,43.8,9.2,44,9c0.2-0.1,0.5-0.2,0.7-0.3
	c0.2-0.1,0.5-0.1,0.7-0.2l0.4-0.1l0.4,0c0.2,0,0.5,0,0.7,0c0.2,0,0.5,0,0.7,0.1c0.1,0,0.2,0,0.4,0l0.3,0.1L49,8.8
	c0.2,0.1,0.4,0.2,0.6,0.3c0.2,0.1,0.4,0.2,0.6,0.3l0,0.2c-0.2,0-0.5,0-0.7,0.1c-0.2,0-0.4,0-0.7,0l-0.6,0.1l-0.3,0
	c-0.1,0-0.2,0-0.3,0.1c-0.2,0-0.4,0.1-0.6,0.1c-0.2,0-0.4,0.1-0.6,0.2l-0.3,0.1l-0.3,0.1c-0.2,0.1-0.4,0.1-0.5,0.2
	c-0.2,0.1-0.3,0.2-0.5,0.2c-0.2,0.1-0.3,0.2-0.5,0.3c-0.2,0.1-0.3,0.2-0.5,0.3c-0.2,0.1-0.3,0.2-0.5,0.3c-0.2,0.1-0.3,0.3-0.4,0.4
	c-0.1,0.1-0.3,0.3-0.4,0.4c-0.1,0.2-0.2,0.3-0.4,0.5c-0.1,0.2-0.2,0.3-0.3,0.5l-1.2,2.2l-0.2-2.4c0-0.2,0-0.3,0-0.5
	c0-0.2-0.1-0.3-0.1-0.5c-0.1-0.1-0.1-0.3-0.2-0.4c0-0.1-0.1-0.1-0.1-0.2c0-0.1-0.1-0.1-0.1-0.2c-0.1-0.1-0.2-0.2-0.3-0.4l-0.2-0.2
	l-0.2-0.1c-0.2-0.1-0.3-0.2-0.5-0.3c-0.2-0.1-0.3-0.1-0.5-0.2c-0.7-0.3-1.5-0.4-2.3-0.5c-0.8-0.1-1.6-0.1-2.4,0L33.5,9.6z"/>
<path fill="#31A1DB" d="M27.6,54.4c0,0,17.4,23.4,55.1,15.7c0,0,70.6-3.5,92.9,9.6c0,0-30.3-27.1-82.4-20.9
	C93.2,58.9,43.6,64,27.6,54.4z"/>
<g>
	<path fill="#2E368F" d="M40.3,61.4c-1.6,0.1-1.1-1-1.3-7.2c0-4.1,1.7-18.1,2.5-18.1h11.9c0.4,0,1.5-0.1,1.5,0.5
		c0,0.2-1.9,4.5-2.3,4.5c-0.5,0-1.4-1.4-4.4-1.4c-2.1,0-4.3,1.2-4.3,4.2c0,0.6,0.1,1.7,1,1.7c1,0,3.1-1.4,5.7-1.4
		c0.4,0,1.4,0.1,1.4,0.6c0,0-1.7,5-2.1,5c-0.3,0-1.5-0.6-2.6-0.6c-1.5,0-3.8,1.1-3.8,4.1c0,2.4,1.3,4.2,3.8,4.2c3,0,4.9-2,5.6-2
		c0.5,0,2.5,5.1,2.5,5.4c0,0.6-0.8,0.5-1.1,0.5H40.3z"/>
	<path fill="#2E368F" d="M58.4,61.4c-1.6,0.1-1.1-1-1.3-7.2c0-4.1,1.7-18.1,2.5-18.1h4.8c0.2,0,0.6,0.1,0.6,0.6
		c0,0.7-3.5,7.2-3.5,15.6c0,4.2,1.8,5.2,3.5,5.2c2.8,0,4.5-2.6,5.2-2.6c0.6,0,1.8,5.9,1.8,6c0,0.6-0.9,0.5-1.3,0.5H58.4z"/>
	<path fill="#2E368F" d="M90.8,39.8c-1.5,0-3.5,0.8-3.5,2.5c0,2.2,3,3,4.7,3.6c6.4,2.1,7.7,5.2,7.7,8.1c0,3.5-2.5,7.9-8.9,7.9
		c-4.3,0-8.7-2.3-8.7-7.1c0-2.6,1.5-4.1,1.8-4.1c0.5,0,0,6.2,6.5,6.2c2.3,0,4.3-1,4.3-2.9c0-2.2-2.7-3.1-4.5-3.7
		c-6.6-2.1-7.4-5.1-7.4-7.6c0-2.5,1.7-6.9,7.9-6.9c4.4,0,7.5,2.3,7.5,3.2c0,0.8-1.6,3.6-2.4,3.6C95.1,42.5,93.9,39.8,90.8,39.8z"/>
	<path fill="#2E368F" d="M115.4,61.4c-0.3,0-1.1,0-1.1-0.5c0-0.2,0-0.3,0.1-0.4c1.1-2.8,1.9-5.6,1.9-8.6c0-2.1-0.8-2.8-2.9-2.8
		c-3.1,0-6.3,1.5-6.3,5c0,2.2,0.4,4.5,1.2,6.6c0.1,0.1,0.1,0.3,0.1,0.5c0,0.4-0.7,0.3-1,0.3H103c-0.8,0-0.8-8.7-0.8-10
		c0-2.2,0.6-15.2,2.1-15.2h4.1c0.2,0,0.9-0.1,0.9,0.3c0,0.4-2.1,4.8-2.1,8c0,0.8,0.3,1.5,0.7,1.5c0.9,0,0.9-0.9,5.1-0.9
		c1.5,0,2.7,0.3,2.7-0.9c0-2.9-2.7-7.2-2.7-7.6c0-0.4,0.9-0.3,1.1-0.3h4c1.2,0,2.6,8.7,2.6,15.2c0,1.5,0,10-1,10H115.4z"/>
	<path fill="#2E368F" d="M136.8,61.4c-0.3,0-1.2,0.1-1.2-0.4c0-0.8,2.3-3.9,2.3-7.3c0-1.4-1.3-1.9-2.7-1.9c-2.8,0-7.2,0.5-7.2,3.9
		c0,2.4,2,5,2,5.4c0,0.2-0.2,0.2-0.6,0.2h-4.3c-1.5,0-2-2.7-2-6.7c0-13,9-19,10.3-19c1,0,8.8,4.3,8.8,18.4c0,8.1-1.3,7.3-2.2,7.3
		H136.8z M128.8,47.9c0,0.4,0.2,0.6,0.6,0.6c0.5,0,3.5-0.8,6.2-0.8c1.1,0,1.5-0.2,1.5-1c0-1.9-2.2-5.8-3.4-5.8
		C132.1,40.9,128.8,45.7,128.8,47.9z"/>
	<path fill="#2E368F" d="M146.6,61.4c-0.8,0-1.7,0.6-1.7-10.8c0-15,1.6-14.4,2.1-14.4h5.2c3.9,0,10.8,4.2,10.8,15.6
		c0,5.2-2.4,9.6-8.5,9.6H146.6z M149.6,49.9c0,6.8,2,7.6,3.7,7.6c1.6,0,4.7-1.5,4.7-7c0-7.5-3.9-10.8-5.9-10.8
		c-2.1,0-2.5,3.9-2.5,5.8V49.9z"/>
	<path fill="#2E368F" d="M166.9,61.4c-0.8,0-1.7,0.6-1.7-10.8c0-15,1.6-14.4,2.1-14.4h5.2c3.9,0,10.8,4.2,10.8,15.6
		c0,5.2-2.4,9.6-8.5,9.6H166.9z M170,49.9c0,6.8,2,7.6,3.7,7.6c1.6,0,4.7-1.5,4.7-7c0-7.5-3.9-10.8-5.9-10.8c-2.1,0-2.5,3.9-2.5,5.8
		V49.9z"/>
	<path fill="#2E368F" d="M198.6,61.4c-0.3,0-1.2,0.1-1.2-0.4c0-0.8,2.3-3.9,2.3-7.3c0-1.4-1.3-1.9-2.7-1.9c-2.8,0-7.2,0.5-7.2,3.9
		c0,2.4,2,5,2,5.4c0,0.2-0.2,0.2-0.6,0.2H187c-1.5,0-2-2.7-2-6.7c0-13,9-19,10.3-19c1,0,8.8,4.3,8.8,18.4c0,8.1-1.3,7.3-2.2,7.3
		H198.6z M190.6,47.9c0,0.4,0.2,0.6,0.6,0.6c0.5,0,3.5-0.8,6.2-0.8c1.1,0,1.5-0.2,1.5-1c0-1.9-2.2-5.8-3.4-5.8
		C193.9,40.9,190.6,45.7,190.6,47.9z"/>
	<path fill="#2E368F" d="M221.5,36.2c1.2,0,1.5,0.4,1.5,1.6c0,9.6-8,11.5-8,21.1c0,0.7,0.2,1.3,0.2,1.9c0,0.6-0.9,0.6-1.4,0.6h-3.5
		c-0.8,0-0.9-1.2-0.9-1.8c0-3.6,2-6.3,2-7.3c0-1.1-6.9-5.8-6.9-13.9c0-2.3,0.4-2.3,1.8-2.3h2.4c0.6,0,1.7-0.1,1.7,0.8
		c0,0.2-0.3,1.8-0.3,2.4c0,4.3,3,8.2,3.9,8.2c0.9,0,4.3-4.8,4.3-8.4c0-1-0.3-2.2-0.3-2.5c0-0.6,0.8-0.5,1.2-0.5H221.5z"/>
</g>
<g>
	<path fill="#2E368F" d="M51.7,26.9l-0.9,3.4c0.2,0,0.4,0,0.5,0c0.2,0,0.4,0,0.7-0.1L52,30.6c-0.3,0.1-0.5,0.1-0.7,0.1
		c-0.2,0-0.4,0-0.7,0c-0.3,0-0.5,0-0.7,0c-0.3,0-0.7,0-1.2,0.1l0.1-0.4c0.5-0.1,0.8-0.2,0.9-0.4c0.2-0.2,0.4-0.5,0.5-1l0.9-3.6
		c0.1-0.5,0.2-0.7,0.2-0.8c0-0.1,0-0.1-0.1-0.2c-0.1,0-0.2-0.1-0.3-0.1l0.1-0.3c0.4,0,1-0.1,1.6-0.2c-0.1,0.2-0.1,0.4-0.2,0.7
		l-0.5,1.9c0.2,0,0.4,0.1,0.5,0.1c0.5,0,1-0.2,1.4-0.6s0.6-0.8,0.6-1.3c0-0.4-0.2-0.7-0.5-1c-0.3-0.3-0.7-0.4-1.3-0.4
		c-0.7,0-1.3,0.2-2,0.5c-0.6,0.3-1.1,0.7-1.5,1.2c-0.3,0.5-0.5,1-0.5,1.5c0,0.4,0.2,0.7,0.5,1c0.2,0.1,0.3,0.2,0.3,0.3
		c0,0.1,0.1,0.1,0.1,0.2c0,0.1,0,0.2-0.1,0.2s-0.1,0.1-0.2,0.1c-0.2,0-0.4-0.1-0.6-0.4c-0.2-0.4-0.4-0.8-0.4-1.3
		c0-0.7,0.2-1.3,0.5-1.9c0.4-0.6,0.9-1,1.7-1.4c0.7-0.4,1.5-0.6,2.3-0.6c0.8,0,1.4,0.1,1.9,0.4c0.5,0.3,0.7,0.7,0.7,1.3
		c0,0.5-0.2,1-0.7,1.5c-0.5,0.5-1.1,0.7-1.9,0.9c0.2,0.4,0.3,0.7,0.4,0.8c0.1,0.2,0.2,0.6,0.4,1.2c0.4,1.3,0.9,2.2,1.3,2.7
		c0.3,0.4,0.7,0.6,1.1,0.6c0.4,0,0.7-0.2,0.8-0.6c0.1-0.2,0.1-0.4,0.2-0.4c0.1-0.1,0.2-0.1,0.3-0.1c0.1,0,0.2,0,0.3,0.1
		c0.1,0.1,0.1,0.2,0.1,0.3c0,0.3-0.1,0.5-0.4,0.8c-0.3,0.2-0.7,0.4-1.1,0.4c-0.4,0-0.8-0.1-1.2-0.3c-0.4-0.2-0.8-0.5-1.1-1
		c-0.4-0.5-0.7-1-0.9-1.7c-0.1-0.3-0.3-0.9-0.6-1.8c-0.2-0.5-0.3-0.8-0.3-0.9l-0.2,0C51.8,26.9,51.8,26.9,51.7,26.9z"/>
	<path fill="#2E368F" d="M59.4,29l0.2,0.3c-1.1,1-2,1.5-2.7,1.5c-0.3,0-0.5-0.1-0.7-0.3c-0.2-0.2-0.2-0.5-0.2-1
		c0-0.9,0.3-1.8,0.8-2.8c0.6-1,1.4-1.6,2.3-1.6c0.3,0,0.5,0.1,0.7,0.2c0.2,0.2,0.2,0.4,0.2,0.6c0,0.3-0.1,0.6-0.3,0.8
		c-0.2,0.3-0.5,0.6-1,0.8c-0.2,0.1-0.8,0.4-1.6,0.8c0,0.2-0.1,0.5-0.1,0.7c0,0.3,0,0.5,0.1,0.6c0.1,0.1,0.2,0.2,0.4,0.2
		c0.2,0,0.4,0,0.6-0.1C58.4,29.7,58.8,29.4,59.4,29z M57.1,28c0.7-0.3,1.2-0.6,1.6-1c0.2-0.2,0.4-0.5,0.4-0.7c0-0.2,0-0.3-0.1-0.4
		c-0.1-0.1-0.2-0.2-0.4-0.2c-0.2,0-0.3,0.1-0.5,0.2c-0.2,0.2-0.4,0.4-0.5,0.7C57.3,27.1,57.2,27.5,57.1,28z"/>
	<path fill="#2E368F" d="M64,29.2l0.1,0.4c-1,0.8-1.9,1.2-2.6,1.2c-0.4,0-0.6-0.1-0.8-0.4c-0.2-0.3-0.3-0.6-0.3-1
		c0-0.7,0.2-1.4,0.5-2.1s0.8-1.3,1.3-1.7c0.4-0.3,0.9-0.4,1.4-0.4c0.3,0,0.6,0.1,0.7,0.2c0.2,0.1,0.2,0.3,0.2,0.4
		c0,0.1,0,0.2-0.1,0.3c-0.1,0.1-0.2,0.1-0.4,0.1c-0.2,0-0.3-0.1-0.6-0.2c-0.2-0.1-0.5-0.2-0.6-0.2c-0.2,0-0.4,0.1-0.6,0.3
		c-0.2,0.2-0.4,0.6-0.6,1.1c-0.2,0.6-0.3,1.1-0.3,1.7c0,0.4,0.1,0.7,0.2,0.9c0.1,0.2,0.3,0.3,0.5,0.3C62.7,30.1,63.3,29.8,64,29.2z"
		/>
	<path fill="#2E368F" d="M69.4,25l0.4-0.1l-0.5,1.6c-0.2,0.7-0.4,1.4-0.5,2.2c-0.1,0.5-0.1,0.8-0.1,0.9s0.1,0.2,0.2,0.2
		c0.1,0,0.2,0,0.3-0.1c0.3-0.2,0.5-0.4,0.8-0.6l0.2,0.3c-0.5,0.4-0.8,0.7-0.9,0.8c-0.3,0.2-0.5,0.3-0.8,0.4
		c-0.2,0.1-0.3,0.1-0.5,0.1c-0.1,0-0.2,0-0.3-0.1s-0.1-0.1-0.1-0.2c0-0.1,0-0.2,0.1-0.3l0.3-0.9c-0.4,0.4-0.8,0.8-1.3,1.1
		c-0.3,0.2-0.6,0.3-0.9,0.3c-0.2,0-0.4-0.1-0.6-0.3c-0.2-0.2-0.3-0.5-0.3-0.9c0-0.5,0.1-1,0.4-1.5c0.2-0.6,0.6-1.1,1-1.5
		c0.4-0.5,0.8-0.8,1.3-1c0.3-0.2,0.8-0.2,1.3-0.2c0.1,0,0.3,0,0.4,0L69.4,25z M68.6,26C68.4,26,68.2,26,68,26c-0.4,0-0.7,0.1-1,0.3
		s-0.6,0.6-0.8,1.2c-0.2,0.6-0.4,1.1-0.4,1.7c0,0.3,0,0.5,0.1,0.6s0.2,0.2,0.4,0.2c0.3,0,0.6-0.2,1-0.5c0.3-0.3,0.6-0.8,0.7-1.4
		L68.6,26z"/>
	<path fill="#2E368F" d="M70.7,26.7l-0.2-0.2c0.6-0.5,1-0.9,1.3-1.1c0.3-0.2,0.6-0.3,0.8-0.3c0.1,0,0.2,0,0.2,0.1
		c0.1,0,0.1,0.1,0.1,0.1c0,0,0,0.1,0,0.2l-0.3,1.3c0.4-0.5,1-0.9,1.7-1.4c0.4-0.2,0.6-0.3,0.9-0.3c0.2,0,0.3,0.1,0.4,0.2
		c0.1,0.1,0.1,0.3,0.1,0.5c0,0.1,0,0.3-0.1,0.5c-0.1,0.3-0.2,0.9-0.5,1.8c-0.3,0.9-0.4,1.5-0.4,1.8c0,0.1,0,0.2,0,0.2
		c0,0,0.1,0.1,0.1,0.1c0.1,0,0.3-0.1,0.6-0.4c0.2-0.2,0.4-0.3,0.6-0.5l0.2,0.2c-0.4,0.4-0.8,0.8-1.2,1.1c-0.3,0.2-0.5,0.3-0.7,0.3
		c-0.2,0-0.3-0.1-0.4-0.2s-0.1-0.3-0.1-0.6c0-0.4,0.2-1.3,0.7-2.9c0.1-0.5,0.2-0.9,0.2-0.9c0-0.1-0.1-0.2-0.2-0.2
		c-0.2,0-0.4,0.1-0.7,0.3c-0.4,0.3-0.7,0.6-1,0.9c-0.2,0.2-0.3,0.6-0.4,1.1l-0.5,2.3h-1c0.2-0.6,0.3-1.3,0.5-1.9l0.6-2.5
		c0-0.1,0-0.2,0-0.2c0-0.1,0-0.2-0.1-0.2c-0.1,0-0.2,0-0.3,0.1C71.2,26.2,71,26.4,70.7,26.7z"/>
	<path fill="#2E368F" d="M78.4,24.2l1-0.4L79,25.6h1.3L80.2,26h-1.3l-0.6,2.2c-0.2,0.7-0.3,1.1-0.3,1.4c0,0.1,0,0.2,0.1,0.3
		c0,0.1,0.1,0.1,0.2,0.1c0.1,0,0.3-0.1,0.6-0.2c0.4-0.2,0.7-0.5,1-0.7l0.2,0.3c-0.9,0.7-1.6,1.1-1.9,1.3c-0.3,0.2-0.6,0.2-0.8,0.2
		c-0.2,0-0.3-0.1-0.4-0.2c-0.1-0.1-0.1-0.3-0.1-0.6c0-0.3,0.1-0.8,0.2-1.4L78,26h-1l0.1-0.5h1L78.4,24.2z"/>
	<path fill="#2E368F" d="M84.1,25.2c0.4,0,0.8,0.2,1.1,0.5c0.3,0.3,0.4,0.8,0.4,1.4c0,1-0.3,1.8-1,2.6c-0.7,0.8-1.4,1.1-2.1,1.1
		c-0.5,0-0.8-0.2-1.1-0.5c-0.3-0.3-0.4-0.7-0.4-1.2c0-0.9,0.3-1.7,0.8-2.5C82.3,25.6,83.1,25.2,84.1,25.2z M83.5,25.6
		c-0.4,0-0.7,0.3-1.1,0.8c-0.3,0.5-0.5,1.2-0.5,2.2c0,0.6,0.1,1,0.3,1.3c0.2,0.2,0.4,0.4,0.6,0.4c0.4,0,0.7-0.2,1-0.7
		c0.4-0.6,0.6-1.3,0.6-2.2c0-0.6-0.1-1.1-0.3-1.4C84,25.8,83.8,25.6,83.5,25.6z"/>
</g>
<g>
	<path fill="#2D388E" d="M55.1,13.6l0.1-0.2c0.5,0,0.9-0.1,1.2-0.2c-0.1,0.2-0.2,0.5-0.3,0.9l-0.4,1.4l0.4,0c0.2,0,0.4,0,0.7-0.2
		c0.2-0.1,0.5-0.3,0.7-0.6c0.2-0.3,0.3-0.6,0.3-0.9c0-0.3-0.1-0.6-0.4-0.8c-0.2-0.2-0.6-0.3-1.1-0.3c-0.6,0-1.1,0.1-1.6,0.4
		s-0.9,0.6-1.2,1.1s-0.4,0.9-0.4,1.3c0,0.2,0,0.4,0.1,0.5s0.2,0.3,0.4,0.4c0.2,0.1,0.2,0.2,0.2,0.3c0,0.1,0,0.1-0.1,0.2
		c-0.1,0-0.1,0.1-0.2,0.1c-0.2,0-0.4-0.1-0.6-0.4s-0.3-0.6-0.3-1c0-0.7,0.3-1.4,0.8-2c0.7-0.8,1.7-1.2,3-1.2c0.5,0,0.9,0.1,1.2,0.2
		c0.3,0.1,0.5,0.3,0.7,0.5c0.2,0.2,0.2,0.4,0.2,0.7c0,0.3-0.1,0.6-0.3,0.9c-0.2,0.3-0.5,0.6-0.9,0.7c-0.4,0.2-0.9,0.3-1.4,0.3
		c-0.1,0-0.2,0-0.4,0l-0.4,1.5c-0.1,0.3-0.1,0.5-0.2,0.8c0.3,0.1,0.5,0.1,0.7,0.1c0.2,0,0.5,0,0.8-0.1l-0.1,0.3
		c-0.3,0.1-0.5,0.1-0.6,0.1c-0.2,0-0.4,0-0.7-0.1c-0.3,0-0.5,0-0.6,0c-0.3,0-0.6,0-1,0.1l0.1-0.3c0.3-0.1,0.6-0.1,0.7-0.2
		c0.2-0.1,0.3-0.4,0.4-0.9l0.7-2.9c0-0.1,0-0.2,0-0.3c0-0.1,0-0.1-0.1-0.1S55.2,13.6,55.1,13.6C55.1,13.6,55.1,13.6,55.1,13.6z"/>
	<path fill="#2D388E" d="M60.7,14.2c0.3,0,0.6,0.1,0.8,0.4s0.3,0.6,0.3,1.1c0,0.7-0.3,1.4-0.8,1.9s-1,0.9-1.6,0.9
		c-0.3,0-0.6-0.1-0.8-0.3c-0.2-0.2-0.3-0.5-0.3-0.9c0-0.7,0.2-1.3,0.6-1.9C59.3,14.5,59.9,14.2,60.7,14.2z M60.3,14.5
		c-0.3,0-0.5,0.2-0.8,0.6c-0.3,0.4-0.4,0.9-0.4,1.6c0,0.4,0.1,0.8,0.2,1c0.1,0.2,0.3,0.3,0.5,0.3c0.3,0,0.5-0.2,0.7-0.5
		c0.3-0.4,0.4-1,0.4-1.6c0-0.5-0.1-0.8-0.2-1C60.6,14.6,60.5,14.5,60.3,14.5z"/>
	<path fill="#2D388E" d="M65.5,14.3h0.7L65.8,16c-0.3,1-0.4,1.6-0.4,1.7c0,0.1,0,0.1,0,0.1s0.1,0,0.1,0c0.1,0,0.1,0,0.2-0.1
		c0.1-0.1,0.3-0.3,0.6-0.6l0.2,0.2c-0.7,0.7-1.1,1-1.4,1c-0.1,0-0.2,0-0.3-0.1c-0.1-0.1-0.1-0.2-0.1-0.3c0-0.2,0-0.4,0.1-0.7
		c-0.3,0.3-0.6,0.6-1.1,0.9c-0.3,0.2-0.5,0.2-0.7,0.2c-0.1,0-0.2,0-0.3-0.1c-0.1-0.1-0.1-0.2-0.1-0.4c0-0.1,0-0.3,0-0.4
		c0-0.2,0.1-0.6,0.3-1.2c0.2-0.8,0.3-1.3,0.3-1.4c0-0.1,0-0.1-0.1-0.1c-0.1,0-0.1,0-0.2,0.1s-0.3,0.2-0.5,0.4l-0.2-0.2
		c0.4-0.4,0.8-0.6,1-0.8c0.2-0.1,0.4-0.2,0.6-0.2c0.1,0,0.1,0,0.2,0.1s0.1,0.1,0.1,0.3c0,0.2-0.1,0.8-0.4,1.7
		c-0.2,0.8-0.3,1.2-0.3,1.4c0,0.1,0,0.1,0.1,0.2s0.1,0.1,0.1,0.1c0.2,0,0.4-0.2,0.8-0.5s0.6-0.6,0.7-1L65.5,14.3z"/>
	<path fill="#2D388E" d="M69,14.2c0.3,0,0.5,0.1,0.7,0.2c0.2,0.1,0.2,0.2,0.2,0.4c0,0.1,0,0.2-0.1,0.2c-0.1,0.1-0.1,0.1-0.2,0.1
		c-0.1,0-0.1,0-0.2,0s-0.1-0.1-0.2-0.2c-0.2-0.2-0.3-0.3-0.5-0.3c-0.1,0-0.3,0.1-0.4,0.2c-0.1,0.1-0.2,0.2-0.2,0.4
		c0,0.1,0,0.3,0.1,0.4c0.1,0.1,0.2,0.3,0.5,0.6c0.4,0.4,0.5,0.7,0.5,1.1c0,0.3-0.1,0.6-0.4,0.9s-0.7,0.4-1.1,0.4
		c-0.4,0-0.7-0.1-0.9-0.2s-0.3-0.4-0.3-0.6c0-0.1,0-0.2,0.1-0.3s0.2-0.1,0.3-0.1c0.1,0,0.2,0,0.2,0.1s0.1,0.1,0.1,0.2
		c0,0,0,0.1,0,0.1c0,0,0,0.1,0,0.1c0,0.1,0,0.2,0.1,0.3c0.1,0.1,0.2,0.1,0.4,0.1c0.2,0,0.3,0,0.5-0.1c0.1-0.1,0.2-0.2,0.3-0.3
		c0.1-0.1,0.1-0.2,0.1-0.4c0-0.1,0-0.2-0.1-0.4c-0.1-0.1-0.2-0.3-0.5-0.6c-0.3-0.4-0.5-0.7-0.5-1.1c0-0.3,0.1-0.6,0.4-0.8
		S68.6,14.2,69,14.2z"/>
	<path fill="#2D388E" d="M73.4,14.1l0.3-0.1l-0.4,1.2c-0.1,0.5-0.3,1.1-0.4,1.7c-0.1,0.3-0.1,0.6-0.1,0.7s0,0.2,0.1,0.2
		c0.1,0,0.1,0,0.2-0.1c0.2-0.1,0.4-0.3,0.6-0.4l0.2,0.2c-0.4,0.3-0.6,0.5-0.7,0.6c-0.2,0.1-0.4,0.2-0.6,0.3c-0.1,0-0.2,0.1-0.4,0.1
		c-0.1,0-0.1,0-0.2-0.1S72,18.3,72,18.2c0,0,0-0.1,0-0.2l0.2-0.7c-0.3,0.3-0.6,0.6-1,0.9c-0.2,0.1-0.5,0.2-0.7,0.2
		c-0.2,0-0.3-0.1-0.4-0.2c-0.1-0.2-0.2-0.4-0.2-0.7c0-0.3,0.1-0.7,0.3-1.2c0.2-0.4,0.4-0.8,0.7-1.2s0.6-0.6,1-0.8
		c0.3-0.1,0.6-0.2,1-0.2c0.1,0,0.2,0,0.3,0L73.4,14.1z M72.8,14.8c-0.2,0-0.3-0.1-0.4-0.1c-0.3,0-0.5,0.1-0.8,0.2s-0.4,0.5-0.6,0.9
		c-0.2,0.4-0.3,0.8-0.3,1.3c0,0.2,0,0.4,0.1,0.5s0.2,0.1,0.3,0.1c0.2,0,0.5-0.1,0.7-0.4s0.4-0.6,0.6-1L72.8,14.8z"/>
	<path fill="#2D388E" d="M78,17.3l0.1,0.2c-0.4,0.4-0.8,0.6-1,0.7c-0.3,0.2-0.5,0.2-0.7,0.2c-0.1,0-0.1,0-0.2-0.1s-0.1-0.1-0.1-0.1
		s0-0.1,0.1-0.3l0.2-0.6c-0.4,0.4-0.7,0.7-1,0.9c-0.3,0.1-0.5,0.2-0.7,0.2c-0.2,0-0.3-0.1-0.4-0.2c-0.1-0.2-0.2-0.4-0.2-0.7
		c0-0.5,0.2-1,0.5-1.6c0.3-0.6,0.7-1,1.1-1.3c0.4-0.3,0.7-0.4,1.1-0.4c0.1,0,0.2,0,0.3,0c0.2-0.6,0.3-1.1,0.4-1.4s0.3-0.5,0.5-0.8
		c0.2-0.2,0.5-0.4,0.8-0.5c0.3-0.1,0.6-0.2,0.8-0.2c0.1,0,0.2,0,0.3,0.1s0.1,0.2,0.1,0.3c0,0.1,0,0.2-0.1,0.2
		c-0.1,0.1-0.2,0.1-0.3,0.1c-0.1,0-0.2,0-0.5,0s-0.4,0-0.5,0c-0.1,0-0.2,0-0.3,0.1c-0.1,0.1-0.2,0.2-0.2,0.5
		c-0.1,0.1-0.2,0.6-0.4,1.4l-0.7,2.9c-0.1,0.3-0.1,0.6-0.1,0.7c0,0.1,0,0.2,0.1,0.2c0.1,0,0.1,0,0.2-0.1
		C77.5,17.7,77.7,17.5,78,17.3z M77,14.7c-0.3-0.1-0.4-0.1-0.6-0.1c-0.2,0-0.4,0.1-0.6,0.3s-0.4,0.5-0.6,1c-0.2,0.5-0.3,0.9-0.3,1.3
		c0,0.2,0,0.3,0.1,0.4c0.1,0.1,0.2,0.2,0.3,0.2c0.1,0,0.3-0.1,0.5-0.2c0.3-0.2,0.4-0.4,0.6-0.7c0.1-0.2,0.2-0.6,0.4-1.2L77,14.7z"/>
	<path fill="#2D388E" d="M82,14.1l0.3-0.1l-0.4,1.2c-0.1,0.5-0.3,1.1-0.4,1.7c-0.1,0.3-0.1,0.6-0.1,0.7s0,0.2,0.1,0.2
		c0.1,0,0.1,0,0.2-0.1c0.2-0.1,0.4-0.3,0.6-0.4l0.2,0.2c-0.4,0.3-0.6,0.5-0.7,0.6c-0.2,0.1-0.4,0.2-0.6,0.3c-0.1,0-0.2,0.1-0.4,0.1
		c-0.1,0-0.1,0-0.2-0.1s-0.1-0.1-0.1-0.2c0,0,0-0.1,0-0.2l0.2-0.7c-0.3,0.3-0.6,0.6-1,0.9c-0.2,0.1-0.5,0.2-0.7,0.2
		c-0.2,0-0.3-0.1-0.4-0.2c-0.1-0.2-0.2-0.4-0.2-0.7c0-0.3,0.1-0.7,0.3-1.2c0.2-0.4,0.4-0.8,0.7-1.2s0.6-0.6,1-0.8
		c0.3-0.1,0.6-0.2,1-0.2c0.1,0,0.2,0,0.3,0L82,14.1z M81.4,14.8c-0.2,0-0.3-0.1-0.4-0.1c-0.3,0-0.5,0.1-0.8,0.2s-0.4,0.5-0.6,0.9
		c-0.2,0.4-0.3,0.8-0.3,1.3c0,0.2,0,0.4,0.1,0.5s0.2,0.1,0.3,0.1c0.2,0,0.5-0.1,0.7-0.4s0.4-0.6,0.6-1L81.4,14.8z"/>
</g>
</svg>
